<?xml version="1.0" encoding="UTF-8"?>
<svg width="35px" height="35px" viewBox="0 0 35 35" version="1.1" xmlns="http://www.w3.org/2000/svg" xmlns:xlink="http://www.w3.org/1999/xlink">
    <!-- Generator: Sketch 47.1 (45422) - http://www.bohemiancoding.com/sketch -->
    <title>iOSSpinner</title>
    <desc>Created with Sketch.</desc>
    <defs></defs>
    <g id="LoadingSpinners" stroke="none" stroke-width="1" fill="none" fill-rule="evenodd">
        <g id="iOSSpinner" transform="translate(-8.000000, -8.000000)" fill="#FFFFFF">
            <g>
                <path d="M25.5,17 L25.5,17 C24.675,17 24,16.325 24,15.5 L24,9.5 C24,8.675 24.675,8 25.5,8 L25.5,8 C26.325,8 27,8.675 27,9.5 L27,15.5 C27,16.325 26.325,17 25.5,17" id="Fill-2" opacity="0.65"></path>
                <path d="M29.75,18.1388 L29.75,18.1388 C29.0355,17.7263 28.7885,16.8043 29.201,16.0898 L32.201,10.8938 C32.6135,10.1793 33.5355,9.9323 34.25,10.3448 L34.25,10.3448 C34.9645,10.7573 35.2115,11.6793 34.799,12.3938 L31.799,17.5898 C31.3865,18.3043 30.4645,18.5513 29.75,18.1388" id="Fill-4" opacity="0.75"></path>
                <path d="M32.8612,21.25 L32.8612,21.25 C32.4487,20.5355 32.6957,19.6135 33.4102,19.201 L38.6062,16.201 C39.3207,15.7885 40.2427,16.0355 40.6552,16.75 L40.6552,16.75 C41.0677,17.4645 40.8207,18.3865 40.1062,18.799 L34.9102,21.799 C34.1957,22.2115 33.2737,21.9645 32.8612,21.25" id="Fill-6" opacity="0.85"></path>
                <path d="M34,25.5 L34,25.5 C34,24.675 34.675,24 35.5,24 L41.5,24 C42.325,24 43,24.675 43,25.5 L43,25.5 C43,26.325 42.325,27 41.5,27 L35.5,27 C34.675,27 34,26.325 34,25.5" id="Fill-8" opacity="0.9"></path>
                <path d="M32.8612,29.75 L32.8612,29.75 C33.2737,29.0355 34.1957,28.7885 34.9102,29.201 L40.1062,32.201 C40.8207,32.6135 41.0677,33.5355 40.6552,34.25 L40.6552,34.25 C40.2427,34.9645 39.3207,35.2115 38.6062,34.799 L33.4102,31.799 C32.6957,31.3865 32.4487,30.4645 32.8612,29.75" id="Fill-10" opacity="0.2"></path>
                <path d="M29.75,32.8612 L29.75,32.8612 C30.4645,32.4487 31.3865,32.6957 31.799,33.4102 L34.799,38.6062 C35.2115,39.3207 34.9645,40.2427 34.25,40.6552 L34.25,40.6552 C33.5355,41.0677 32.6135,40.8207 32.201,40.1062 L29.201,34.9102 C28.7885,34.1957 29.0355,33.2737 29.75,32.8612" id="Fill-12" opacity="0.25"></path>
                <path d="M25.5,34 L25.5,34 C26.325,34 27,34.675 27,35.5 L27,41.5 C27,42.325 26.325,43 25.5,43 L25.5,43 C24.675,43 24,42.325 24,41.5 L24,35.5 C24,34.675 24.675,34 25.5,34" id="Fill-14" opacity="0.3"></path>
                <path d="M21.25,32.8612 L21.25,32.8612 C21.9645,33.2737 22.2115,34.1957 21.799,34.9102 L18.799,40.1062 C18.3865,40.8207 17.4645,41.0677 16.75,40.6552 L16.75,40.6552 C16.0355,40.2427 15.7885,39.3207 16.201,38.6062 L19.201,33.4102 C19.6135,32.6957 20.5355,32.4487 21.25,32.8612" id="Fill-16" opacity="0.35"></path>
                <path d="M18.1388,29.75 L18.1388,29.75 C18.5513,30.4645 18.3043,31.3865 17.5898,31.799 L12.3938,34.799 C11.6793,35.2115 10.7573,34.9645 10.3448,34.25 L10.3448,34.25 C9.9323,33.5355 10.1793,32.6135 10.8938,32.201 L16.0898,29.201 C16.8043,28.7885 17.7263,29.0355 18.1388,29.75" id="Fill-18" opacity="0.4"></path>
                <path d="M17,25.5 L17,25.5 C17,26.325 16.325,27 15.5,27 L9.5,27 C8.675,27 8,26.325 8,25.5 L8,25.5 C8,24.675 8.675,24 9.5,24 L15.5,24 C16.325,24 17,24.675 17,25.5" id="Fill-20" opacity="0.45"></path>
                <path d="M18.1388,21.25 L18.1388,21.25 C17.7263,21.9645 16.8043,22.2115 16.0898,21.799 L10.8938,18.799 C10.1793,18.3865 9.9323,17.4645 10.3448,16.75 L10.3448,16.75 C10.7573,16.0355 11.6793,15.7885 12.3938,16.201 L17.5898,19.201 C18.3043,19.6135 18.5513,20.5355 18.1388,21.25" id="Fill-22" opacity="0.5"></path>
                <path d="M21.25,18.1388 L21.25,18.1388 C20.5355,18.5513 19.6135,18.3043 19.201,17.5898 L16.201,12.3938 C15.7885,11.6793 16.0355,10.7573 16.75,10.3448 L16.75,10.3448 C17.4645,9.9323 18.3865,10.1793 18.799,10.8938 L21.799,16.0898 C22.2115,16.8043 21.9645,17.7263 21.25,18.1388" id="Fill-24" opacity="0.55"></path>
            </g>
        </g>
    </g>
</svg>