<svg viewBox="0 0 249 69" version="1.1" xmlns="http://www.w3.org/2000/svg" xmlns:xlink="http://www.w3.org/1999/xlink">
    <g id="Logo-4" stroke="none" stroke-width="1" fill="none" fill-rule="evenodd">
        <g id="Artboard-Copy" fill-rule="nonzero">
            <g id="Group" fill="#05C77E">
                <path d="M17.346,58.07785 L61.377,58.07785 C62.4798298,58.07785 63.37385,57.1838298 63.37385,56.081 C63.37385,54.9781702 62.4798298,54.08415 61.377,54.08415 L17.346,54.08415 C16.2431702,54.08415 15.34915,54.9781702 15.34915,56.081 C15.34915,57.1838298 16.2431702,58.07785 17.346,58.07785 Z" id="Path"></path>
                <path d="M32.694,68.081 L46.029,68.081 C47.1335695,68.081 48.029,67.1855695 48.029,66.081 C48.029,64.9764305 47.1335695,64.081 46.029,64.081 L32.694,64.081 C31.5894305,64.081 30.694,64.9764305 30.694,66.081 C30.694,67.1855695 31.5894305,68.081 32.694,68.081 Z" id="Path"></path>
                <path d="M69.547,44.0809793 L76.724,44.081 C77.7783618,44.081 78.6421651,44.8968778 78.7185143,45.9317377 L78.724,46.081 C78.724,47.1353618 77.9081222,47.9991651 76.8732623,48.0755143 L76.724,48.081 L2,48.081 C0.8954305,48.081 -5.68434189e-14,47.1855695 -5.68434189e-14,46.081 C-5.68434189e-14,45.0266382 0.815877791,44.1628349 1.85073766,44.0864857 L2,44.081 L9.177,44.0809793 L27.8447319,10.8866856 C28.5543416,9.62480476 30.3107522,9.52261715 31.1710489,10.6442335 L31.262851,10.7738971 L41.987,27.2059793 L45.321,22.182 L45.083167,21.930036 C42.9545718,19.6142542 41.655,16.5243927 41.655,13.131 C41.655,5.94798454 47.4779845,0.125 54.661,0.125 C61.8440155,0.125 67.667,5.94798454 67.667,13.131 C67.667,18.7687838 64.0798555,23.5687451 59.0634462,25.3730043 L59.003,25.265 L69.547,44.0809793 Z M29.7151769,15.721168 L13.767,44.0809793 L48.224,44.0809793 L29.7151769,15.721168 Z M51.5166165,20.0865364 L44.368,30.8539793 L53.001,44.0809793 L64.963,44.0809793 L51.5166165,20.0865364 Z M57.1941169,22.0361027 C61.0746424,20.9343965 63.917,17.3646323 63.917,13.131 C63.917,8.01905236 59.7729476,3.875 54.661,3.875 C49.5490524,3.875 45.405,8.01905236 45.405,13.131 C45.405,15.3374931 46.1770716,17.3636593 47.4657975,18.954081 L49.9947564,15.1468209 C50.7925109,13.945159 52.5434986,13.9671173 53.323192,15.1402119 L53.4057297,15.2752892 L57.1941169,22.0361027 Z" id="Combined-Shape"></path>
            </g>
            <path d="M208.577,26.856 C211.992,26.857 214.645,28.06 216.414,30.296 L216.414,27.471 L221.573,27.471 L221.573,49.36 C221.573,56.755 216.807,61.299 208.946,61.299 C205.433,61.299 201.576,60.341 199.095,58.572 L200.962,54.224 C203.345,55.673 206.072,56.607 208.946,56.607 C213.761,56.607 216.414,53.954 216.414,49.581 L216.414,47.689 C214.645,49.949 211.992,51.128 208.577,51.128 C203.197,51.128 197.67,46.607 197.67,38.992 C197.67,31.377 203.197,26.856 208.577,26.856 Z M180.738,26.857 C184.079,26.857 186.511,28.232 188.133,30.321 L188.133,27.471 L193.268,27.471 L193.268,51.006 L188.133,51.006 L188.133,48.181 C186.512,50.269 184.08,51.62 180.738,51.62 C174.155,51.62 168.971,46.436 168.971,39.238 C168.971,32.04 174.155,26.857 180.738,26.857 Z M237.692,26.858 C244.277,26.857 248.797,31.869 248.821,39.214 C248.821,39.877 248.772,40.541 248.723,41.13 L231.33,41.13 C232.018,45.356 234.99,47.125 238.331,47.125 C240.689,47.125 243.195,46.191 245.136,44.644 L247.691,48.305 C244.816,50.762 241.574,51.621 238.012,51.621 C230.961,51.621 225.974,46.707 225.974,39.239 C225.974,31.869 230.765,26.858 237.692,26.858 Z M105.996,16.612 L115.995,41.179 L125.994,16.612 L134.519,16.612 L134.519,51.006 L128.966,51.006 L128.966,22.705 L118.918,47.64 L113.071,47.64 L103.023,22.975 L103.023,51.006 L97.471,51.006 L97.471,16.612 L105.996,16.612 Z M146.415,27.471 L146.415,51.006 L141.256,51.006 L141.256,27.471 L146.415,27.471 Z M164.424,26.857 C165.996,26.857 167.2,27.053 168.379,27.52 L167.151,32.605 C166.07,32.04 164.498,31.745 163.245,31.745 C159.977,31.745 157.644,34.054 157.644,38.058 L157.644,51.005 L152.509,51.005 L152.509,27.471 L157.594,27.471 L157.594,30.124 C159.142,27.889 161.549,26.857 164.424,26.857 Z M181.353,31.696 C176.931,31.696 174.253,35.111 174.253,39.238 C174.253,43.365 176.931,46.78 181.353,46.78 C185.603,46.78 188.453,43.537 188.453,39.238 C188.453,34.939 185.603,31.696 181.353,31.696 Z M209.903,31.6969998 C205.555,31.696 202.951,35.013 202.951,38.993 C202.951,42.949 205.555,46.289 209.903,46.289 C214.055,46.289 216.856,43.12 216.856,38.993 C216.856,34.866 214.055,31.6969998 209.903,31.6969998 Z M237.594,31.426 C233.934,31.426 231.895,33.785 231.355,37.224 L243.564,37.224 C242.999,33.563 240.862,31.426 237.594,31.426 Z M143.81,15.703 C145.849,15.703 147.446,17.3 147.446,19.339 C147.446,21.378 145.849,22.926 143.81,22.926 C141.771,22.926 140.223,21.378 140.223,19.339 C140.223,17.3 141.771,15.703 143.81,15.703 Z" id="Combined-Shape" fill="currentColor"></path>
        </g>
    </g>
</svg>


<svg  viewBox="0 0 249 69" version="1.1" xmlns="http://www.w3.org/2000/svg" xmlns:xlink="http://www.w3.org/1999/xlink">
    <g id="Logo-4" stroke="none" stroke-width="1" fill="none" fill-rule="evenodd">
        <g id="logo-center-mirage-e" fill-rule="nonzero">
            <g id="Group" fill="#05C77E">
                <path d="M17.346,58.07785 L61.377,58.07785 C62.4798298,58.07785 63.37385,57.1838298 63.37385,56.081 C63.37385,54.9781702 62.4798298,54.08415 61.377,54.08415 L17.346,54.08415 C16.2431702,54.08415 15.34915,54.9781702 15.34915,56.081 C15.34915,57.1838298 16.2431702,58.07785 17.346,58.07785 Z" id="Path"></path>
                <path d="M32.694,68.081 L46.029,68.081 C47.1335695,68.081 48.029,67.1855695 48.029,66.081 C48.029,64.9764305 47.1335695,64.081 46.029,64.081 L32.694,64.081 C31.5894305,64.081 30.694,64.9764305 30.694,66.081 C30.694,67.1855695 31.5894305,68.081 32.694,68.081 Z" id="Path"></path>
                <path d="M69.547,44.0809793 L76.724,44.081 C77.7783618,44.081 78.6421651,44.8968778 78.7185143,45.9317377 L78.724,46.081 C78.724,47.1353618 77.9081222,47.9991651 76.8732623,48.0755143 L76.724,48.081 L2,48.081 C0.8954305,48.081 -5.68434189e-14,47.1855695 -5.68434189e-14,46.081 C-5.68434189e-14,45.0266382 0.815877791,44.1628349 1.85073766,44.0864857 L2,44.081 L9.177,44.0809793 L27.8447319,10.8866856 C28.5543416,9.62480476 30.3107522,9.52261715 31.1710489,10.6442335 L31.262851,10.7738971 L41.987,27.2059793 L45.321,22.182 L45.083167,21.930036 C42.9545718,19.6142542 41.655,16.5243927 41.655,13.131 C41.655,5.94798454 47.4779845,0.125 54.661,0.125 C61.8440155,0.125 67.667,5.94798454 67.667,13.131 C67.667,18.7687838 64.0798555,23.5687451 59.0634462,25.3730043 L59.003,25.265 L69.547,44.0809793 Z M29.7151769,15.721168 L13.767,44.0809793 L48.224,44.0809793 L29.7151769,15.721168 Z M51.5166165,20.0865364 L44.368,30.8539793 L53.001,44.0809793 L64.963,44.0809793 L51.5166165,20.0865364 Z M57.1941169,22.0361027 C61.0746424,20.9343965 63.917,17.3646323 63.917,13.131 C63.917,8.01905236 59.7729476,3.875 54.661,3.875 C49.5490524,3.875 45.405,8.01905236 45.405,13.131 C45.405,15.3374931 46.1770716,17.3636593 47.4657975,18.954081 L49.9947564,15.1468209 C50.7925109,13.945159 52.5434986,13.9671173 53.323192,15.1402119 L53.4057297,15.2752892 L57.1941169,22.0361027 Z" id="Combined-Shape"></path>
            </g>
            <path d="M208.577,24.856 C211.992,24.857 214.645,26.06 216.414,28.296 L216.414,25.471 L221.573,25.471 L221.573,47.36 C221.573,54.755 216.807,59.299 208.946,59.299 C205.433,59.299 201.576,58.341 199.095,56.572 L200.962,52.224 C203.345,53.673 206.072,54.607 208.946,54.607 C213.761,54.607 216.414,51.954 216.414,47.581 L216.414,45.689 C214.645,47.949 211.992,49.128 208.577,49.128 C203.197,49.128 197.67,44.607 197.67,36.992 C197.67,29.377 203.197,24.856 208.577,24.856 Z M180.738,24.857 C184.079,24.857 186.511,26.232 188.133,28.321 L188.133,25.471 L193.268,25.471 L193.268,49.006 L188.133,49.006 L188.133,46.181 C186.512,48.269 184.08,49.62 180.738,49.62 C174.155,49.62 168.971,44.436 168.971,37.238 C168.971,30.04 174.155,24.857 180.738,24.857 Z M237.692,24.858 C244.277,24.857 248.797,29.869 248.821,37.214 C248.821,37.877 248.772,38.541 248.723,39.13 L231.33,39.13 C232.018,43.356 234.99,45.125 238.331,45.125 C240.689,45.125 243.195,44.191 245.136,42.644 L247.691,46.305 C244.816,48.762 241.574,49.621 238.012,49.621 C230.961,49.621 225.974,44.707 225.974,37.239 C225.974,29.869 230.765,24.858 237.692,24.858 Z M105.996,14.612 L115.995,39.179 L125.994,14.612 L134.519,14.612 L134.519,49.006 L128.966,49.006 L128.966,20.705 L118.918,45.64 L113.071,45.64 L103.023,20.975 L103.023,49.006 L97.471,49.006 L97.471,14.612 L105.996,14.612 Z M146.415,25.471 L146.415,49.006 L141.256,49.006 L141.256,25.471 L146.415,25.471 Z M164.424,24.857 C165.996,24.857 167.2,25.053 168.379,25.52 L167.151,30.605 C166.07,30.04 164.498,29.745 163.245,29.745 C159.977,29.745 157.644,32.054 157.644,36.058 L157.644,49.005 L152.509,49.005 L152.509,25.471 L157.594,25.471 L157.594,28.124 C159.142,25.889 161.549,24.857 164.424,24.857 Z M181.353,29.696 C176.931,29.696 174.253,33.111 174.253,37.238 C174.253,41.365 176.931,44.78 181.353,44.78 C185.603,44.78 188.453,41.537 188.453,37.238 C188.453,32.939 185.603,29.696 181.353,29.696 Z M209.903,29.6969998 C205.555,29.696 202.951,33.013 202.951,36.993 C202.951,40.949 205.555,44.289 209.903,44.289 C214.055,44.289 216.856,41.12 216.856,36.993 C216.856,32.866 214.055,29.6969998 209.903,29.6969998 Z M237.594,29.426 C233.934,29.426 231.895,31.785 231.355,35.224 L243.564,35.224 C242.999,31.563 240.862,29.426 237.594,29.426 Z M143.81,13.703 C145.849,13.703 147.446,15.3 147.446,17.339 C147.446,19.378 145.849,20.926 143.81,20.926 C141.771,20.926 140.223,19.378 140.223,17.339 C140.223,15.3 141.771,13.703 143.81,13.703 Z" id="Combined-Shape" fill="currentColor"></path>
        </g>
    </g>
</svg>
