
<svg width="120px" height="120px" viewBox="0 0 120 120" version="1.1" xmlns="http://www.w3.org/2000/svg" xmlns:xlink="http://www.w3.org/1999/xlink">
    <g id="Logo-3" stroke="none" stroke-width="1" fill="none" fill-rule="evenodd">
        <g id="Logo-9" fill="currentColor">
            <g id="Group-2" transform="translate(0.000000, 14.000000)">
                <path d="M-1.42108547e-14,65.0447617 C7.35421277,59.6164213 15.3253191,58.5540383 22.9689787,58.3575702 C49.1097447,57.6865064 52.0470638,74.9474 86.9528936,78.1943787 C96.5725532,79.0894 106.243957,78.6552298 113.273957,77.0834851 C104.644723,82.696166 95.3808085,83.7795702 86.828383,83.9994851 C55.176,84.8120383 51.0509787,68.1227617 23.8122553,63.6921234 C16.4062979,62.4874426 8.3672766,62.6329745 -1.42108547e-14,65.0447617" id="Fill-73"></path>
                <path d="M59.668166,1.63424829e-13 C85.3885064,1.63424829e-13 106.239187,20.5353617 106.239187,46.8645106 C106.239187,56.5367234 103.415868,65.5289787 98.5793574,73.0440851 C72.0262511,33.5451064 78.7223362,34.0520426 64.3227617,55.4719149 C41.9245915,22.1531915 50.2862085,22.1604681 22.2139106,59.3026383 L22.2139106,59.3026383 L19.0251447,58.9323404 L14.7287191,59.3762128 C13.6719957,55.3870213 13.0971447,51.1957021 13.0971447,46.8645106 C13.0971447,20.5353617 33.9478255,1.63424829e-13 59.668166,1.63424829e-13 Z M65.1711319,14.0809404 C60.7057277,14.0809404 57.0860255,17.7006426 57.0860255,22.1660468 C57.0860255,26.6314511 60.7057277,30.2511532 65.1711319,30.2511532 C69.6357277,30.2511532 73.2562383,26.6314511 73.2562383,22.1660468 C73.2562383,17.7006426 69.6357277,14.0809404 65.1711319,14.0809404 Z" id="Combined-Shape"></path>
            </g>
        </g>
    </g>
</svg>
