<svg width="120px" height="120px" viewBox="0 0 120 120" version="1.1" xmlns="http://www.w3.org/2000/svg" xmlns:xlink="http://www.w3.org/1999/xlink">
    <g id="Logo-3" stroke="none" stroke-width="1" fill="none" fill-rule="evenodd">
        <g id="Logo-1" fill="currentColor">
            <g id="Group" transform="translate(14.000000, 22.000000)">
                <path d="M37.991275,56.0413796 L31.47275,47.566746 L24.954225,56.0413796 C19.970975,53.6287631 16.526875,48.5543216 16.526875,42.6666733 C16.526875,34.4489636 23.218225,27.7866856 31.47275,27.7866856 C39.72805,27.7866856 46.4194,34.4489636 46.4194,42.6666733 C46.4194,48.5543216 42.9753,53.6287631 37.991275,56.0413796 M46.5,4 C20.8196,4 0,24.7267442 0,50.2926091 C0,61.6767332 4.134625,72.0941134 10.980975,80.1559712 L31.47275,53.5145747 L42.1662,67.4162452 L35.2904,81.5 L66.607375,43.246874 L88.042325,71.1150247 C91.213625,64.8554924 93,57.7819817 93,50.2926091 C93,24.7267442 72.18195,4 46.5,4" id="Fill-3"></path>
            </g>
        </g>
    </g>
</svg>
