<!-- <svg viewBox="0 0 249 69" version="1.1" xmlns="http://www.w3.org/2000/svg" xmlns:xlink="http://www.w3.org/1999/xlink">
    <g id="Logo-4" stroke="none" stroke-width="1" fill="none" fill-rule="evenodd">
        <g id="Artboard-Copy" fill-rule="nonzero">
            <g id="Group" fill="#05C77E">
                <path d="M17.346,58.07785 L61.377,58.07785 C62.4798298,58.07785 63.37385,57.1838298 63.37385,56.081 C63.37385,54.9781702 62.4798298,54.08415 61.377,54.08415 L17.346,54.08415 C16.2431702,54.08415 15.34915,54.9781702 15.34915,56.081 C15.34915,57.1838298 16.2431702,58.07785 17.346,58.07785 Z" id="Path"></path>
                <path d="M32.694,68.081 L46.029,68.081 C47.1335695,68.081 48.029,67.1855695 48.029,66.081 C48.029,64.9764305 47.1335695,64.081 46.029,64.081 L32.694,64.081 C31.5894305,64.081 30.694,64.9764305 30.694,66.081 C30.694,67.1855695 31.5894305,68.081 32.694,68.081 Z" id="Path"></path>
                <path d="M69.547,44.0809793 L76.724,44.081 C77.7783618,44.081 78.6421651,44.8968778 78.7185143,45.9317377 L78.724,46.081 C78.724,47.1353618 77.9081222,47.9991651 76.8732623,48.0755143 L76.724,48.081 L2,48.081 C0.8954305,48.081 -5.68434189e-14,47.1855695 -5.68434189e-14,46.081 C-5.68434189e-14,45.0266382 0.815877791,44.1628349 1.85073766,44.0864857 L2,44.081 L9.177,44.0809793 L27.8447319,10.8866856 C28.5543416,9.62480476 30.3107522,9.52261715 31.1710489,10.6442335 L31.262851,10.7738971 L41.987,27.2059793 L45.321,22.182 L45.083167,21.930036 C42.9545718,19.6142542 41.655,16.5243927 41.655,13.131 C41.655,5.94798454 47.4779845,0.125 54.661,0.125 C61.8440155,0.125 67.667,5.94798454 67.667,13.131 C67.667,18.7687838 64.0798555,23.5687451 59.0634462,25.3730043 L59.003,25.265 L69.547,44.0809793 Z M29.7151769,15.721168 L13.767,44.0809793 L48.224,44.0809793 L29.7151769,15.721168 Z M51.5166165,20.0865364 L44.368,30.8539793 L53.001,44.0809793 L64.963,44.0809793 L51.5166165,20.0865364 Z M57.1941169,22.0361027 C61.0746424,20.9343965 63.917,17.3646323 63.917,13.131 C63.917,8.01905236 59.7729476,3.875 54.661,3.875 C49.5490524,3.875 45.405,8.01905236 45.405,13.131 C45.405,15.3374931 46.1770716,17.3636593 47.4657975,18.954081 L49.9947564,15.1468209 C50.7925109,13.945159 52.5434986,13.9671173 53.323192,15.1402119 L53.4057297,15.2752892 L57.1941169,22.0361027 Z" id="Combined-Shape"></path>
            </g>
            <path d="M208.577,26.856 C211.992,26.857 214.645,28.06 216.414,30.296 L216.414,27.471 L221.573,27.471 L221.573,49.36 C221.573,56.755 216.807,61.299 208.946,61.299 C205.433,61.299 201.576,60.341 199.095,58.572 L200.962,54.224 C203.345,55.673 206.072,56.607 208.946,56.607 C213.761,56.607 216.414,53.954 216.414,49.581 L216.414,47.689 C214.645,49.949 211.992,51.128 208.577,51.128 C203.197,51.128 197.67,46.607 197.67,38.992 C197.67,31.377 203.197,26.856 208.577,26.856 Z M180.738,26.857 C184.079,26.857 186.511,28.232 188.133,30.321 L188.133,27.471 L193.268,27.471 L193.268,51.006 L188.133,51.006 L188.133,48.181 C186.512,50.269 184.08,51.62 180.738,51.62 C174.155,51.62 168.971,46.436 168.971,39.238 C168.971,32.04 174.155,26.857 180.738,26.857 Z M237.692,26.858 C244.277,26.857 248.797,31.869 248.821,39.214 C248.821,39.877 248.772,40.541 248.723,41.13 L231.33,41.13 C232.018,45.356 234.99,47.125 238.331,47.125 C240.689,47.125 243.195,46.191 245.136,44.644 L247.691,48.305 C244.816,50.762 241.574,51.621 238.012,51.621 C230.961,51.621 225.974,46.707 225.974,39.239 C225.974,31.869 230.765,26.858 237.692,26.858 Z M105.996,16.612 L115.995,41.179 L125.994,16.612 L134.519,16.612 L134.519,51.006 L128.966,51.006 L128.966,22.705 L118.918,47.64 L113.071,47.64 L103.023,22.975 L103.023,51.006 L97.471,51.006 L97.471,16.612 L105.996,16.612 Z M146.415,27.471 L146.415,51.006 L141.256,51.006 L141.256,27.471 L146.415,27.471 Z M164.424,26.857 C165.996,26.857 167.2,27.053 168.379,27.52 L167.151,32.605 C166.07,32.04 164.498,31.745 163.245,31.745 C159.977,31.745 157.644,34.054 157.644,38.058 L157.644,51.005 L152.509,51.005 L152.509,27.471 L157.594,27.471 L157.594,30.124 C159.142,27.889 161.549,26.857 164.424,26.857 Z M181.353,31.696 C176.931,31.696 174.253,35.111 174.253,39.238 C174.253,43.365 176.931,46.78 181.353,46.78 C185.603,46.78 188.453,43.537 188.453,39.238 C188.453,34.939 185.603,31.696 181.353,31.696 Z M209.903,31.6969998 C205.555,31.696 202.951,35.013 202.951,38.993 C202.951,42.949 205.555,46.289 209.903,46.289 C214.055,46.289 216.856,43.12 216.856,38.993 C216.856,34.866 214.055,31.6969998 209.903,31.6969998 Z M237.594,31.426 C233.934,31.426 231.895,33.785 231.355,37.224 L243.564,37.224 C242.999,33.563 240.862,31.426 237.594,31.426 Z M143.81,15.703 C145.849,15.703 147.446,17.3 147.446,19.339 C147.446,21.378 145.849,22.926 143.81,22.926 C141.771,22.926 140.223,21.378 140.223,19.339 C140.223,17.3 141.771,15.703 143.81,15.703 Z" id="Combined-Shape" fill="currentColor"></path>
        </g>
    </g>
</svg> -->


<!-- Orig -->
<!-- <svg viewBox="0 0 249 69" version="1.1" xmlns="http://www.w3.org/2000/svg" xmlns:xlink="http://www.w3.org/1999/xlink">
    <g id="Logo-5" stroke="none" stroke-width="1" fill="none" fill-rule="evenodd">
        <g id="Logo-1" transform="translate(-860.000000, -628.000000)">
            <g id="Group-2" transform="translate(862.000000, 628.125000)">
                <path d="M-2.84217094e-14,45.956 L74.724,45.956" id="Path" stroke="#05C77E" stroke-width="4" stroke-linecap="round" stroke-linejoin="round"></path>
                <path d="M15.346,55.956 L59.377,55.956" id="Path" stroke="#05C77E" stroke-width="3.9937" stroke-linecap="round" stroke-linejoin="round"></path>
                <path d="M30.694,65.956 L44.029,65.956" id="Path" stroke="#05C77E" stroke-width="4" stroke-linecap="round" stroke-linejoin="round"></path>
                <polyline id="Path" stroke="#05C77E" stroke-width="4" stroke-linecap="round" stroke-linejoin="round" fill-rule="nonzero" points="40.066 30.581 49.661 16.128 66.376 45.956"></polyline>
                <path d="M52.661,-1.77635684e-15 C59.8440155,-1.77635684e-15 65.667,5.82298454 65.667,13.006 C65.667,18.6437838 62.0798555,23.4437451 57.0634462,25.2480043 L55.1941169,21.9111027 C59.0746424,20.8093965 61.917,17.2396323 61.917,13.006 C61.917,7.89405236 57.7729476,3.75 52.661,3.75 C47.5490524,3.75 43.405,7.89405236 43.405,13.006 C43.405,15.2129486 44.1773904,17.2394958 45.4665957,18.8300659 L43.3230653,22.0591357 C41.0526191,19.7177165 39.655,16.525074 39.655,13.006 C39.655,5.82298454 45.4779845,-1.77635684e-15 52.661,-1.77635684e-15 Z" id="Combined-Shape" fill="#05C77E" fill-rule="nonzero"></path>
                <polyline id="Path" stroke="#05C77E" stroke-width="4" stroke-linecap="round" stroke-linejoin="round" points="8.348 45.956 27.588 11.742 49.918 45.956"></polyline>
                <path d="M206.577,26.731 C209.992,26.732 212.645,27.935 214.414,30.171 L214.414,27.346 L219.573,27.346 L219.573,49.235 C219.573,56.63 214.807,61.174 206.946,61.174 C203.433,61.174 199.576,60.216 197.095,58.447 L198.962,54.099 C201.345,55.548 204.072,56.482 206.946,56.482 C211.761,56.482 214.414,53.829 214.414,49.456 L214.414,47.564 C212.645,49.824 209.992,51.003 206.577,51.003 C201.197,51.003 195.67,46.482 195.67,38.867 C195.67,31.252 201.197,26.731 206.577,26.731 Z M178.738,26.732 C182.079,26.732 184.511,28.107 186.133,30.196 L186.133,27.346 L191.268,27.346 L191.268,50.881 L186.133,50.881 L186.133,48.056 C184.512,50.144 182.08,51.495 178.738,51.495 C172.155,51.495 166.971,46.311 166.971,39.113 C166.971,31.915 172.155,26.732 178.738,26.732 Z M235.692,26.733 C242.277,26.732 246.797,31.744 246.821,39.089 C246.821,39.752 246.772,40.416 246.723,41.005 L229.33,41.005 C230.018,45.231 232.99,47 236.331,47 C238.689,47 241.195,46.066 243.136,44.519 L245.691,48.18 C242.816,50.637 239.574,51.496 236.012,51.496 C228.961,51.496 223.974,46.582 223.974,39.114 C223.974,31.744 228.765,26.733 235.692,26.733 Z M103.996,16.487 L113.995,41.054 L123.994,16.487 L132.519,16.487 L132.519,50.881 L126.966,50.881 L126.966,22.58 L116.918,47.515 L111.071,47.515 L101.023,22.85 L101.023,50.881 L95.471,50.881 L95.471,16.487 L103.996,16.487 Z M144.415,27.346 L144.415,50.881 L139.256,50.881 L139.256,27.346 L144.415,27.346 Z M162.424,26.732 C163.996,26.732 165.2,26.928 166.379,27.395 L165.151,32.48 C164.07,31.915 162.498,31.62 161.245,31.62 C157.977,31.62 155.644,33.929 155.644,37.933 L155.644,50.88 L150.509,50.88 L150.509,27.346 L155.594,27.346 L155.594,29.999 C157.142,27.764 159.549,26.732 162.424,26.732 Z M179.353,31.571 C174.931,31.571 172.253,34.986 172.253,39.113 C172.253,43.24 174.931,46.655 179.353,46.655 C183.603,46.655 186.453,43.412 186.453,39.113 C186.453,34.814 183.603,31.571 179.353,31.571 Z M207.903,31.5719998 C203.555,31.571 200.951,34.888 200.951,38.868 C200.951,42.824 203.555,46.164 207.903,46.164 C212.055,46.164 214.856,42.995 214.856,38.868 C214.856,34.741 212.055,31.5719998 207.903,31.5719998 Z M235.594,31.301 C231.934,31.301 229.895,33.66 229.355,37.099 L241.564,37.099 C240.999,33.438 238.862,31.301 235.594,31.301 Z M141.81,15.578 C143.849,15.578 145.446,17.175 145.446,19.214 C145.446,21.253 143.849,22.801 141.81,22.801 C139.771,22.801 138.223,21.253 138.223,19.214 C138.223,17.175 139.771,15.578 141.81,15.578 Z" id="Combined-Shape" fill="currentColor" fill-rule="nonzero"></path>
            </g>
        </g>
    </g>
</svg> -->

<!-- Smaller sun -->
<!-- <svg viewBox="0 0 249 66" version="1.1" xmlns="http://www.w3.org/2000/svg" xmlns:xlink="http://www.w3.org/1999/xlink">
    <g id="Logo-5" stroke="none" stroke-width="1" fill="none" fill-rule="evenodd">
        <g id="Logo-1" transform="translate(-858.000000, -800.000000)">
            <g id="Smaller-sun" transform="translate(860.000000, 802.000000)">
                <path d="M-2.84217094e-14,41.081 L74.724,41.081" id="Path" stroke="#05C77E" stroke-width="4" stroke-linecap="round" stroke-linejoin="round"></path>
                <path d="M15.346,51.081 L59.377,51.081" id="Path" stroke="#05C77E" stroke-width="3.9937" stroke-linecap="round" stroke-linejoin="round"></path>
                <path d="M30.694,61.081 L44.029,61.081" id="Path" stroke="#05C77E" stroke-width="4" stroke-linecap="round" stroke-linejoin="round"></path>
                <polyline id="Path" stroke="#05C77E" stroke-width="4" stroke-linecap="round" stroke-linejoin="round" fill-rule="nonzero" points="40.066 25.706 49.661 11.253 66.376 41.081"></polyline>
                <polyline id="Path" stroke="#05C77E" stroke-width="4" stroke-linecap="round" stroke-linejoin="round" points="8.348 41.081 27.588 6.867 49.918 41.081"></polyline>
                <path d="M51.53,0.262 C57.0528475,0.262 61.53,4.7391525 61.53,10.262 C61.53,14.7635741 58.5555642,18.5704315 54.4648509,19.8244141 L49.661,11.253 L45.1871155,17.9933422 C42.9542694,16.1593459 41.53,13.3770009 41.53,10.262 C41.53,4.7391525 46.0071525,0.262 51.53,0.262 Z" id="Combined-Shape" stroke="#05C77E" stroke-width="3.75" stroke-linecap="round" stroke-linejoin="round" fill-rule="nonzero"></path>
                <g id="Group-2" transform="translate(95.471000, 10.703000)" fill="currentColor" fill-rule="nonzero">
                    <path d="M111.106,11.153 C114.521,11.154 117.174,12.357 118.943,14.593 L118.943,11.768 L124.102,11.768 L124.102,33.657 C124.102,41.052 119.336,45.596 111.475,45.596 C107.962,45.596 104.105,44.638 101.624,42.869 L103.491,38.521 C105.874,39.97 108.601,40.904 111.475,40.904 C116.29,40.904 118.943,38.251 118.943,33.878 L118.943,31.986 C117.174,34.246 114.521,35.425 111.106,35.425 C105.726,35.425 100.199,30.904 100.199,23.289 C100.199,15.674 105.726,11.153 111.106,11.153 Z M83.267,11.154 C86.608,11.154 89.04,12.529 90.662,14.618 L90.662,11.768 L95.797,11.768 L95.797,35.303 L90.662,35.303 L90.662,32.478 C89.041,34.566 86.609,35.917 83.267,35.917 C76.684,35.917 71.5,30.733 71.5,23.535 C71.5,16.337 76.684,11.154 83.267,11.154 Z M140.221,11.155 C146.806,11.154 151.326,16.166 151.35,23.511 C151.35,24.174 151.301,24.838 151.252,25.427 L133.859,25.427 C134.547,29.653 137.519,31.422 140.86,31.422 C143.218,31.422 145.724,30.488 147.665,28.941 L150.22,32.602 C147.345,35.059 144.103,35.918 140.541,35.918 C133.49,35.918 128.503,31.004 128.503,23.536 C128.503,16.166 133.294,11.155 140.221,11.155 Z M8.525,0.909 L18.524,25.476 L28.523,0.909 L37.048,0.909 L37.048,35.303 L31.495,35.303 L31.495,7.002 L21.447,31.937 L15.6,31.937 L5.552,7.272 L5.552,35.303 L-2.84217094e-14,35.303 L-2.84217094e-14,0.909 L8.525,0.909 Z M48.944,11.768 L48.944,35.303 L43.785,35.303 L43.785,11.768 L48.944,11.768 Z M66.953,11.154 C68.525,11.154 69.729,11.35 70.908,11.817 L69.68,16.902 C68.599,16.337 67.027,16.042 65.774,16.042 C62.506,16.042 60.173,18.351 60.173,22.355 L60.173,35.302 L55.038,35.302 L55.038,11.768 L60.123,11.768 L60.123,14.421 C61.671,12.186 64.078,11.154 66.953,11.154 Z M83.882,15.993 C79.46,15.993 76.782,19.408 76.782,23.535 C76.782,27.662 79.46,31.077 83.882,31.077 C88.132,31.077 90.982,27.834 90.982,23.535 C90.982,19.236 88.132,15.993 83.882,15.993 Z M112.432,15.9939998 C108.084,15.993 105.48,19.31 105.48,23.29 C105.48,27.246 108.084,30.586 112.432,30.586 C116.584,30.586 119.385,27.417 119.385,23.29 C119.385,19.163 116.584,15.9939998 112.432,15.9939998 Z M140.123,15.723 C136.463,15.723 134.424,18.082 133.884,21.521 L146.093,21.521 C145.528,17.86 143.391,15.723 140.123,15.723 Z M46.339,6.39488462e-14 C48.378,6.39488462e-14 49.975,1.597 49.975,3.636 C49.975,5.675 48.378,7.223 46.339,7.223 C44.3,7.223 42.752,5.675 42.752,3.636 C42.752,1.597 44.3,6.39488462e-14 46.339,6.39488462e-14 Z" id="Combined-Shape"></path>
                </g>
            </g>
        </g>
    </g>
</svg> -->

<!-- Font 2 -->
<!-- <svg viewBox="0 0 253 69" version="1.1" xmlns="http://www.w3.org/2000/svg" xmlns:xlink="http://www.w3.org/1999/xlink">
    <g id="Logo-5" stroke="none" stroke-width="1" fill="none" fill-rule="evenodd">
        <g id="Logo-1" transform="translate(-1092.000000, -960.000000)">
            <g id="Group-6" transform="translate(1094.000000, 962.000000)">
                <g id="Correct-shapes-Copy" stroke="#05C77E" stroke-linecap="round" stroke-linejoin="round">
                    <path d="M-2.84217094e-14,44.081 L74.724,44.081" id="Path" stroke-width="4"></path>
                    <path d="M15.346,54.081 L59.377,54.081" id="Path" stroke-width="3.9937"></path>
                    <path d="M30.694,64.081 L44.029,64.081" id="Path" stroke-width="4"></path>
                    <polyline id="Path" stroke-width="4" fill-rule="nonzero" points="40.066 28.706 49.661 14.253 66.376 44.081"></polyline>
                    <polyline id="Path" stroke-width="4" points="8.348 44.081 27.588 9.867 49.918 44.081"></polyline>
                    <path d="M52.661,-7.99360578e-14 C58.8084816,-7.99360578e-14 63.792,4.98351845 63.792,11.131 C63.792,16.791617 59.5665873,21.4653359 54.0977945,22.170124 L49.661,14.253 L45.875765,19.9555142 C43.2329037,17.9203746 41.53,14.7245545 41.53,11.131 C41.53,4.98351845 46.5135184,-7.99360578e-14 52.661,-7.99360578e-14 Z" id="Combined-Shape" stroke-width="3.75" fill-rule="nonzero"></path>
                </g>
                <g id="Group-3"  transform="translate(96.300000, 17.000000)" fill="currentColor" fill-rule="nonzero">
                    <g id="Group-4">
                        <g id="Group-5">
                            <path d="M111.351733,8 C114.919219,8 117.74554,9.57838606 119.459105,12.8282425 L119.459105,8.78919303 L124,8.78919303 L124,33.7185868 C124,41.6570593 118.486705,45 112.46348,45 C106.672501,45 102.270953,42.584867 100.742174,37.7566245 L105.328509,36.2713227 C106.162572,38.8716126 108.525412,40.6816976 112.277684,40.6816976 C116.355099,40.6816976 119.042073,38.5468293 119.042073,33.9037436 L119.042073,29.7260795 C117.790979,32.3718997 115.474588,34.2760808 111.629418,34.2760808 C103.706833,34.2760808 100,28.7517296 100,21.2776669 C100,13.4788209 103.84618,8 111.351733,8 Z M7.17716131,1 L14.5356194,15.6974451 L16.6374668,19.995574 L18.6028435,15.7437807 L25.9154794,1 L33,1 L33,34 L28.2464381,34 L28.2464381,14.8654192 L28.2922603,6.91584506 L18.0997947,27.4827997 L14.9918498,27.4827997 L4.70773968,6.91584506 L4.79938421,14.9117548 L4.79938421,34 L0,34 L0,1 L7.17716131,1 Z M46.1759657,9.28562259 L46.1759657,28.0374023 C46.1759657,29.2207959 46.3629998,29.6304703 47.9019652,29.6304703 L50,29.6304703 L50,34 L46.4555003,34 C42.7717416,33.9533785 41.0925006,31.8593768 41.0925006,28.9013887 L41.0925006,9.28562259 L46.1759657,9.28562259 Z M70,9 L70,13.6961548 L64.0185361,13.6961548 C61.4020913,13.6961548 60.0933596,14.9855904 60.0933596,18.299992 L60.0933596,34 L55,34 L55,9.04515533 L59.5321836,9.04515533 L59.5321836,13.0057799 C60.3265888,10.0586417 62.4297257,9 65.0003395,9 L70,9 Z M83.7203287,8 C89.774434,8 94.302675,11.2957469 94.302675,17.7504919 L94.302675,27.1389435 C94.302675,28.357878 94.9039562,28.9442258 95.7812022,28.9442258 L98,28.9442258 L98,33.2778871 L94.302675,33.2778871 C91.4836033,33.2778871 90.1903956,32.1494627 89.5427846,29.8473589 C88.1105874,31.7884062 85.6611474,34 81.178229,34 C75.7727419,34 73,30.6599818 73,26.5073407 C73,22.0831694 76.2803561,19.4652641 81.5488679,19.4652641 L89.3121425,19.4652641 L89.3121425,18.1558196 C89.3121425,14.0031784 86.8163726,12.5136976 83.627669,12.5136976 C80.0693337,12.5136976 78.2211748,14.0031784 77.2049392,15.5379143 L73.5539441,12.9652641 C75.1251309,10.5726502 78.128515,8 83.7203287,8 Z M142.994424,8 C149.732292,8 153.909927,12.9652641 153.909927,20.5041623 C153.909927,21.0905101 153.865869,21.9936431 153.775796,22.4904647 L136.076409,22.4904647 C136.256555,26.9589072 139.040993,29.8030876 143.353737,29.8030876 C146.273285,29.8030876 148.699387,28.3136068 149.957475,25.8757379 L154,27.7262752 C152.113358,31.6083699 148.025796,34 143.173591,34 C135.717095,34.0009838 131,28.9452096 131,21.1810201 C131,13.2367943 135.672059,8 142.994424,8 Z M112.278694,11.9459652 C107.970044,11.9459652 105.236621,15.4740627 105.236621,21.2776669 C105.236621,26.9416446 107.877146,30.0984167 112.232245,30.0984167 C116.680242,30.0974049 119.089532,27.2188739 119.089532,21.0914983 C119.089532,14.6383275 116.078425,11.9459652 112.278694,11.9459652 Z M89.3131496,23.0305736 L82.9357425,23.0305736 C79.8860285,23.0305736 78.1295222,24.2947631 78.1295222,26.5063569 C78.1295222,28.4926593 79.5153896,29.936886 82.6124406,29.936886 C84.9682137,29.9378689 86.9090323,29.0799909 89.3131496,26.8674133 L89.3131496,23.0305736 Z M142.680146,12.0631149 C138.951899,12.0631149 136.480759,14.6357651 136.076409,18.744135 L148.968628,18.744135 C148.969607,14.5914939 146.633577,12.0631149 142.680146,12.0631149 Z M46.1302236,0 L46.1302236,5.18887852 L41,5.18887852 L41,0 L46.1302236,0 Z" id="Combined-Shape"></path>
                        </g>
                    </g>
                </g>
            </g>
        </g>
    </g>
</svg> -->

<!-- Font 3 -->
<svg  viewBox="0 0 246 69" version="1.1" xmlns="http://www.w3.org/2000/svg" xmlns:xlink="http://www.w3.org/1999/xlink">
    <g id="Logo-5" stroke="none" stroke-width="1" fill="none" fill-rule="evenodd">
        <g id="Logo-1" transform="translate(-853.000000, -1295.000000)">
            <g id="Font-3,-original-Copy-4" transform="translate(855.000000, 1297.000000)">
                <g id="Font-2-Copy" stroke="#05C77E" stroke-linecap="round" stroke-linejoin="round">
                    <g id="Correct-shapes-Copy">
                        <path d="M-2.84217094e-14,44.081 L74.724,44.081" id="Path" stroke-width="4"></path>
                        <path d="M15.346,54.081 L59.377,54.081" id="Path" stroke-width="3.9937"></path>
                        <path d="M30.694,64.081 L44.029,64.081" id="Path" stroke-width="4"></path>
                        <polyline id="Path" stroke-width="4" fill-rule="nonzero" points="40.066 28.706 49.661 14.253 66.376 44.081"></polyline>
                        <polyline id="Path" stroke-width="4" points="8.348 44.081 27.588 9.867 49.918 44.081"></polyline>
                        <path d="M52.661,-7.99360578e-14 C58.8084816,-7.99360578e-14 63.792,4.98351845 63.792,11.131 C63.792,16.791617 59.5665873,21.4653359 54.0977945,22.170124 L49.661,14.253 L45.875765,19.9555142 C43.2329037,17.9203746 41.53,14.7245545 41.53,11.131 C41.53,4.98351845 46.5135184,-7.99360578e-14 52.661,-7.99360578e-14 Z" id="Combined-Shape" stroke-width="3.75" fill-rule="nonzero"></path>
                    </g>
                </g>
                <g id="Group-6" transform="translate(95.000000, 14.000000)" fill="currentColor" fill-rule="nonzero">
                    <path d="M106.007695,9.9501039 C107.892448,9.9501039 109.516935,10.3235714 110.883091,11.071474 C112.248279,11.8184091 113.353201,12.843026 114.197857,14.1424221 L114.782247,10.2422987 L119.364481,10.2422987 L119.364481,34.1780844 L119.363513,34.1780844 C119.363513,37.6882922 118.323416,40.409961 116.243221,42.3430909 C114.163026,44.2762208 110.945981,45.2437532 106.591117,45.2437532 C103.211526,45.2437532 100.464701,44.4881104 98.3525779,42.9768247 C96.2404545,41.465539 95.0697403,39.3292273 94.8433377,36.5669221 L100.205403,36.5669221 C100.530494,37.964039 101.278396,39.0457403 102.448143,39.8091234 C103.61789,40.573474 105.129175,40.9546818 106.982,40.9546818 C111.759675,40.9546818 114.148513,38.6316364 114.148513,33.9836104 L114.148513,31.2048571 C112.328584,33.9342662 109.614656,35.2994545 106.007695,35.2994545 C103.732058,35.2994545 101.701208,34.7876299 99.9141753,33.7639805 C98.1271429,32.7403312 96.7290584,31.2774221 95.7218571,29.3762208 C94.7146558,27.4750195 94.2105714,25.224539 94.2105714,22.6247792 C94.2105714,20.1227403 94.7223961,17.9119286 95.7460455,15.9942792 C96.7696948,14.0766299 98.1755195,12.5895325 99.9625519,11.5339545 C101.749584,10.4783766 103.764955,9.9501039 106.007695,9.9501039 Z M79.0967468,9.95107143 C82.4444091,9.95107143 85.0277208,10.7309026 86.8476494,12.2905649 C88.6675779,13.8502273 89.5770584,16.0929675 89.5770584,19.0178182 L89.5770584,28.8653636 C89.5770584,30.0351104 90.1295195,30.6195 91.2344416,30.6195 L92.2580909,30.6195 L92.2580909,35.2017338 L89.4803052,35.2017338 C87.8558182,35.2017338 86.6851039,34.8601948 85.9710649,34.1780844 C85.2560584,33.4950065 84.8980714,32.5042532 84.8980714,31.2048571 C83.0133182,34.0648831 80.267461,35.4948961 76.6595325,35.4948961 C73.8643312,35.4948961 71.6215909,34.8447143 69.9322792,33.5453182 C68.242,32.2449545 67.3973442,30.4579221 67.3973442,28.1832532 C67.3973442,25.6154221 68.3068247,23.6416558 70.1277208,22.2600195 C71.9476494,20.8783831 74.5967532,20.1875649 78.0730974,20.1875649 L84.3620584,20.1875649 L84.3620584,18.6762792 C84.3620584,17.2791623 83.8753896,16.1819805 82.9001169,15.3857013 C81.9248442,14.5894221 80.5761039,14.1917662 78.8538961,14.1917662 C77.3261623,14.1917662 76.0674026,14.5245974 75.0756818,15.1912273 C74.0849286,15.8568896 73.4918312,16.7431494 73.2963896,17.8480714 L68.1287987,17.8480714 C68.3890649,15.3460325 69.493987,13.4041948 71.4435649,12.0225584 C73.3931429,10.6418896 75.944526,9.95107143 79.0967468,9.95107143 Z M135.743838,9.9501039 C138.149123,9.9501039 140.268987,10.4377403 142.105364,11.413013 C143.94174,12.3873182 145.388201,13.7689545 146.443779,15.555987 C147.499357,17.343987 148.044078,19.4396623 148.076974,21.8449481 C148.076974,22.4941623 148.028597,23.1607922 147.930877,23.8429026 L129.114305,23.8429026 L129.114305,24.1350974 C129.243955,26.3120455 129.926065,28.0352208 131.161604,29.3026883 C132.397143,30.5701558 134.038078,31.2038896 136.085377,31.2038896 C137.710831,31.2038896 139.075052,30.8217143 140.179974,30.0583312 C141.284896,29.2939805 142.016351,28.2142143 142.374338,26.8161299 L147.638682,26.8161299 C147.183942,29.3510649 145.95711,31.4312597 143.958188,33.0557468 C141.959266,34.6802338 139.464968,35.492961 136.475292,35.492961 C133.875532,35.492961 131.608604,34.9646883 129.674506,33.9091104 C127.740409,32.8525649 126.246539,31.3664351 125.189994,29.4487857 C124.133448,27.5311364 123.605175,25.3048442 123.605175,22.7699091 C123.605175,20.2030455 124.117,17.9525649 125.140649,16.0184675 C126.164299,14.0843701 127.594312,12.5905 129.430688,11.5339545 C131.267065,10.4783766 133.371448,9.9501039 135.743838,9.9501039 Z M7.29035714,1.07783117 L18.2099286,27.9384675 L28.9340584,1.07783117 L36.0512273,1.07783117 L36.0512273,35.2017338 L30.6398182,35.2017338 L30.6391558,10.0966234 L20.4023571,35.2017338 L15.674026,35.2017338 L5.43615584,10.0966234 L5.43656494,35.2017338 L0.0251558442,35.2017338 L0.0251558442,1.07783117 L7.29035714,1.07783117 Z M47.0201429,10.2422987 L47.0201429,35.2017338 L41.7557987,35.2017338 L41.7557987,10.2422987 L47.0201429,10.2422987 Z M65.9837792,10.2413312 L65.9837792,15.1660714 L63.6442857,15.1660714 C61.4673377,15.1660714 59.8912273,15.8723701 58.9159545,17.2869026 C57.9406818,18.7004675 57.4530455,20.4962078 57.4530455,22.6731558 L57.4530455,35.2017338 L52.1887013,35.2017338 L52.1887013,10.2422987 L56.8686558,10.2422987 L57.4530455,13.9953571 C58.1680519,12.8256104 59.0939805,11.9074221 60.2317987,11.2407922 C61.3696169,10.5751299 62.8963831,10.2413312 64.8140325,10.2413312 L65.9837792,10.2413312 Z M84.3620584,24.0857532 L77.8292792,24.0857532 L77.8292792,24.0867208 C76.2047922,24.0867208 74.9528052,24.4040714 74.0762208,25.0368377 C73.1986688,25.6705714 72.7603766,26.6052078 72.7603766,27.8397792 C72.7603766,28.9118052 73.1744805,29.7738766 74.0036558,30.4230909 C74.8318636,31.0723052 75.9619416,31.3973961 77.3919545,31.3973961 C79.5689026,31.3973961 81.2669221,30.8130065 82.486013,29.6432597 C83.7041364,28.473513 84.3301299,26.9128831 84.3620584,24.9633052 L84.3620584,24.0857532 Z M106.884279,14.3862403 C104.707331,14.3862403 102.952227,15.1505909 101.619935,16.6773571 C100.287643,18.2050909 99.621013,20.1865974 99.621013,22.6247792 C99.621013,25.0619935 100.286675,27.0444675 101.619935,28.5722013 C102.952227,30.0999351 104.707331,30.8633182 106.884279,30.8633182 C109.061227,30.8633182 110.816331,30.1076753 112.148623,28.5963896 C113.480916,27.0851039 114.147545,25.1277857 114.147545,22.7225 C114.147545,20.2523896 113.481883,18.2457273 112.148623,16.7015455 C110.816331,15.1583312 109.061227,14.3862403 106.884279,14.3862403 Z M135.938312,14.1917662 C134.216104,14.1917662 132.729006,14.720039 131.477987,15.7765844 C130.226968,16.8321623 129.503253,18.237987 129.308779,19.9930909 L142.714909,19.9930909 C142.486571,18.1721948 141.763825,16.7508896 140.544734,15.7272403 C139.325643,14.7035909 137.790169,14.1917662 135.938312,14.1917662 Z M44.3884545,0.249623377 C45.2979351,0.249623377 46.0622857,0.550525974 46.6795714,1.15136364 C47.2968571,1.7522013 47.6055,2.50784416 47.6055,3.41829221 C47.6055,4.32777273 47.2968571,5.08341558 46.6795714,5.68522078 C46.0622857,6.28702597 45.2979351,6.58696104 44.3884545,6.58696104 C43.478974,6.58696104 42.7146234,6.28605844 42.0973377,5.68522078 C41.4800519,5.08438312 41.1714091,4.32874026 41.1714091,3.41829221 C41.1714091,2.50784416 41.4800519,1.7522013 42.0973377,1.15136364 C42.7146234,0.549558442 43.478974,0.249623377 44.3884545,0.249623377 Z" id="Combined-Shape"></path>
                </g>
            </g>
        </g>
    </g>
</svg>
