<svg width="120px" height="120px" viewBox="0 0 120 120" version="1.1" xmlns="http://www.w3.org/2000/svg" xmlns:xlink="http://www.w3.org/1999/xlink">
    <g id="Logo-3" stroke="none" stroke-width="1" fill="none" fill-rule="evenodd">
        <g id="Logo-8" fill="currentColor">
            <g id="Group" transform="translate(9.000000, 10.000000)">
                <path d="M99.2578702,76.6397171 C101.095505,76.1883683 100.978062,75.3202127 100.213532,74.1768725 C80.38297,49.2467597 77.4469,37.3758257 73.1084248,37.3758257 C69.7025836,37.3758257 68.8954522,43.8869927 60.4649014,54.5961641 C62.4453094,60.5719301 67.826953,73.1820629 64.6859338,68.5096817 C38.3925634,35.4633503 37.5151966,24.7587845 31.511797,24.8716217 C25.472704,24.9833075 23.5878622,36.9947123 1.20464615,60.2944427 C-0.803395447,63.0013841 -0.349743847,63.7279175 2.93289755,62.8091003 C39.8410246,52.4741339 37.7915326,91.7403281 99.2578702,76.6397171" id="Fill-23"></path>
                <path d="M63.1067887,18.261204 C63.1309681,18.3567702 63.2173231,18.4224 63.3151921,18.4224 C63.4142125,18.4224 63.4994161,18.3567702 63.5235955,18.261204 C64.5667639,14.2566348 67.2725539,11.0004756 70.7900809,9.4080894 C70.8672247,9.372396 70.9167349,9.2964036 70.9167349,9.2112 C70.9167349,9.1259964 70.8672247,9.050004 70.7900809,9.015462 C67.2725539,7.4219244 64.5667639,4.1657652 63.5235955,0.161196 C63.4994161,0.0667812 63.4142125,-2.70894418e-14 63.3151921,-2.70894418e-14 C63.2173231,-2.70894418e-14 63.1309681,0.0667812 63.1067887,0.161196 C62.0647717,4.1657652 59.3578303,7.4219244 55.8403033,9.015462 C55.7631595,9.050004 55.7136493,9.1271478 55.7136493,9.2112 C55.7136493,9.2964036 55.7631595,9.372396 55.8403033,9.4080894 C59.3578303,11.0004756 62.0647717,14.2566348 63.1067887,18.261204" id="Fill-25"></path>
            </g>
        </g>
    </g>
</svg>
