
<svg width="120px" height="120px" viewBox="0 0 120 120" version="1.1" xmlns="http://www.w3.org/2000/svg" xmlns:xlink="http://www.w3.org/1999/xlink">
    <g id="Logo-3" stroke="none" stroke-width="1" fill="none" fill-rule="evenodd">
        <g id="Logo-2" fill="currentColor">
            <path d="M104.301998,96.8692959 C99.1196375,97.3485691 93.9700158,97.5187112 88.9745074,96.9579614 L85.2646078,96.4203765 L81.6305671,95.6359659 L78.0867586,94.5743756 L76.3507875,93.9345458 C75.7750584,93.71408 75.18815,93.5351514 74.6299882,93.2611668 C70.0776556,91.3384821 65.7640788,88.7703761 61.4313377,85.9179012 L54.8020682,81.5373434 C52.5534506,80.067572 50.168287,78.6553133 47.7288244,77.3149457 C42.7884136,74.7108942 37.2467211,72.6907573 31.533348,72.0724947 C31.3504881,72.0509274 31.1668297,72.0429395 30.9839698,72.0237686 L49.1110534,45.050268 L67.7843212,72.8377344 L79.1352085,55.9449486 L102.228255,90.3096421 C107.246921,82.8201982 110.186254,73.8210434 110.186254,64.1269424 C110.186254,38.0992077 89.0942846,17 63.0754796,17 C37.0566746,17 15.9639071,38.0992077 15.9639071,64.1269424 C15.9639071,67.1910963 16.2689398,70.1809628 16.8310942,73.0805662 C16.1619388,73.2427203 15.4991715,73.4192527 14.8435909,73.6085656 C12.2172759,74.4329157 9.62689398,75.2836258 7.17066257,76.4418695 L5.31970535,77.264622 C4.70724453,77.5465945 4.12033617,77.8884761 3.52224862,78.1984061 C2.34124528,78.8574069 1.15545086,79.4820598 0,80.1626278 C5.26221229,79.0251526 10.4174236,77.9044519 15.5614557,77.4187883 C20.6943086,76.9227404 25.7696684,77.0665224 30.5423912,78.1696497 C35.319905,79.2711795 39.7923862,81.2202242 44.0995748,83.8003121 C46.2619528,85.105533 48.3963827,86.478651 50.5555666,87.9691909 C52.7219372,89.4110047 54.9130617,90.9510695 57.1760525,92.4232373 C61.7196015,95.3723656 66.6336614,98.1769131 71.9916954,100.094805 C77.3281696,102.061423 83.0583115,102.998402 88.6622881,103 C94.2830336,102.989616 99.7632404,102.029472 104.9999,100.563694 C106.302278,100.160306 107.615835,99.8232169 108.891861,99.3671085 C110.162298,98.8902316 111.428743,98.4189462 112.682411,97.9252947 C113.948855,97.469985 115.165792,96.8812777 116.383527,96.3077473 C117.594075,95.7158448 118.810213,95.1542963 120,94.5384301 C114.689078,95.3979269 109.512307,96.4627124 104.301998,96.8692959" id="Fill-42"></path>
        </g>
    </g>
</svg>
