
<svg width="120px" height="120px" viewBox="0 0 120 120" version="1.1" xmlns="http://www.w3.org/2000/svg" xmlns:xlink="http://www.w3.org/1999/xlink">
    <g id="Logo-3" stroke="none" stroke-width="1" fill="none" fill-rule="evenodd">
        <g fill="currentColor" id="Group">
            <g transform="translate(15.000000, 22.000000)">
                <path d="M68.5040417,81.4430283 L22.4959583,81.4430283 C21.5541083,81.4430283 20.7904667,82.20667 20.7904667,83.14852 C20.7904667,84.09037 21.5541083,84.8540117 22.4959583,84.8540117 L68.5040417,84.8540117 C69.4458917,84.8540117 70.2095333,84.09037 70.2095333,83.14852 C70.2095333,82.20667 69.4458917,81.4430283 68.5040417,81.4430283" id="Fill-17"></path>
                <path d="M80.8761742,70.3768975 L10.1236742,70.3768975 C9.18182417,70.3768975 8.4181825,71.1412975 8.4181825,72.0823892 C8.4181825,73.0242392 9.18182417,73.7878808 10.1236742,73.7878808 L80.8761742,73.7878808 C81.8180242,73.7878808 82.5816658,73.0242392 82.5816658,72.0823892 C82.5816658,71.1412975 81.8180242,70.3768975 80.8761742,70.3768975" id="Fill-19"></path>
                <path d="M86.6743908,60.5555708 L4.32697417,60.5555708 C3.38512417,60.5555708 2.6214825,61.3192125 2.6214825,62.2610625 C2.6214825,63.2029125 3.38512417,63.9665542 4.32697417,63.9665542 L86.6743908,63.9665542 C87.6162408,63.9665542 88.3798825,63.2029125 88.3798825,62.2610625 C88.3798825,61.3192125 87.6162408,60.5555708 86.6743908,60.5555708" id="Fill-21"></path>
                <path d="M45.5,-4.97379915e-14 C20.3711083,-4.97379915e-14 0,20.3711083 0,45.5 C0,48.10715 0.231291667,50.6581833 0.652166667,53.144 L12.1128583,53.144 L31.7969167,27.493375 L50.1584417,51.421825 L63.0758917,35.4475333 L77.3864,53.144 L90.3478333,53.144 C90.7687083,50.6581833 91,48.10715 91,45.5 C91,20.3711083 70.6288917,-4.97379915e-14 45.5,-4.97379915e-14" id="Fill-23"></path>
            </g>
        </g>
    </g>
</svg>
