<?xml version="1.0" encoding="UTF-8"?>
<svg width="315px" height="148px" viewBox="0 0 315 148" version="1.1" xmlns="http://www.w3.org/2000/svg" xmlns:xlink="http://www.w3.org/1999/xlink">
    <!-- Generator: Sketch 55.2 (78181) - https://sketchapp.com -->
    <title>logo-plain</title>
    <desc>Created with Sketch.</desc>
    <g id="logo-plain" stroke="none" stroke-width="1" fill="none" fill-rule="evenodd" stroke-linecap="round" stroke-linejoin="round">
        <g id="Combined-Shape-2" transform="translate(8.000000, 7.000000)" class='fill-current stroke-current' stroke-width="13.3333333">
            <path d="M54.0549609,133 L5.34264949,133 C2.397131,133 0.00931647688,130.612185 0.00931647688,127.666667 C0.00931647688,126.858562 0.19295237,126.061022 0.546353563,125.334289 L25.0426856,74.9600936 C26.3308223,72.3111725 29.5224383,71.2080388 32.1713594,72.4961755 C33.2527826,73.0220579 34.1247508,73.8979683 34.6457497,74.9817527 L58.861729,125.355948 C60.1379038,128.010653 59.0203844,131.19726 56.3656796,132.473435 C55.6446795,132.820036 54.8549441,133 54.0549609,133 Z M106.363903,133 L46.3639031,0 L76.6358304,0 C102.847219,2.84217094e-14 126.626291,15.359404 137.404923,39.2520385 L179.697236,133 L106.363903,133 Z M226.363903,133 L166.363903,0 L196.63583,0 C222.847219,2.84217094e-14 246.626291,15.359404 257.404923,39.2520385 L299.697236,133 L226.363903,133 Z" id="Combined-Shape"></path>
        </g>
    </g>
</svg>
