
<svg width="120px" height="120px" viewBox="0 0 120 120" version="1.1" xmlns="http://www.w3.org/2000/svg" xmlns:xlink="http://www.w3.org/1999/xlink">
    <g id="Logo-3" stroke="none" stroke-width="1" fill="none" fill-rule="evenodd">
        <g id="Logo-2" fill="currentColor">
            <path d="M104.301998,104.869296 C99.1196375,105.348569 93.9700158,105.518711 88.9745074,104.957961 L85.2646078,104.420377 L81.6305671,103.635966 L78.0867586,102.574376 L76.3507875,101.934546 C75.7750584,101.71408 75.18815,101.535151 74.6299882,101.261167 C70.0776556,99.3384821 65.7640788,96.7703761 61.4313377,93.9179012 L54.8020682,89.5373434 C52.5534506,88.067572 50.168287,86.6553133 47.7288244,85.3149457 C42.7884136,82.7108942 37.2467211,80.6907573 31.533348,80.0724947 C31.3504881,80.0509274 31.1668297,80.0429395 30.9839698,80.0237686 L49.1110534,53.050268 L67.7843212,80.8377344 L79.1352085,63.9449486 L102.228255,98.3096421 C107.246921,90.8201982 110.186254,81.8210434 110.186254,72.1269424 C110.186254,46.0992077 89.0942846,25 63.0754796,25 C37.0566746,25 15.9639071,46.0992077 15.9639071,72.1269424 C15.9639071,75.1910963 16.2689398,78.1809628 16.8310942,81.0805662 C16.1619388,81.2427203 15.4991715,81.4192527 14.8435909,81.6085656 C12.2172759,82.4329157 9.62689398,83.2836258 7.17066257,84.4418695 L5.31970535,85.264622 C4.70724453,85.5465945 4.12033617,85.8884761 3.52224862,86.1984061 C2.34124528,86.8574069 1.15545086,87.4820598 0,88.1626278 C5.26221229,87.0251526 10.4174236,85.9044519 15.5614557,85.4187883 C20.6943086,84.9227404 25.7696684,85.0665224 30.5423912,86.1696497 C35.319905,87.2711795 39.7923862,89.2202242 44.0995748,91.8003121 C46.2619528,93.105533 48.3963827,94.478651 50.5555666,95.9691909 C52.7219372,97.4110047 54.9130617,98.9510695 57.1760525,100.423237 C61.7196015,103.372366 66.6336614,106.176913 71.9916954,108.094805 C77.3281696,110.061423 83.0583115,110.998402 88.6622881,111 C94.2830336,110.989616 99.7632404,110.029472 104.9999,108.563694 C106.302278,108.160306 107.615835,107.823217 108.891861,107.367108 C110.162298,106.890232 111.428743,106.418946 112.682411,105.925295 C113.948855,105.469985 115.165792,104.881278 116.383527,104.307747 C117.594075,103.715845 118.810213,103.154296 120,102.53843 C114.689078,103.397927 109.512307,104.462712 104.301998,104.869296" id="Fill-42"></path>
        </g>
    </g>
</svg>
