
<svg width="120px" height="120px" viewBox="0 0 120 120" version="1.1" xmlns="http://www.w3.org/2000/svg" xmlns:xlink="http://www.w3.org/1999/xlink">
    <g id="Logo-3" stroke="none" stroke-width="1" fill="none" fill-rule="evenodd">
        <g id="Logo-4" fill="currentColor">
            <g id="Group" transform="translate(3.000000, 2.000000)">
                <path d="M78.112974,0.296574046 C88.9969282,0.296574046 97.8523786,9.15202443 97.8523786,20.0359786 C97.8523786,28.587219 92.3869274,35.8859601 84.7661893,38.6224595 L81.9838612,33.7382709 C87.958916,32.0481455 92.3490504,26.5458087 92.3490504,20.0359786 C92.3490504,12.186513 85.9633099,5.79990229 78.112974,5.79990229 C70.2626382,5.79990229 63.8760275,12.186513 63.8760275,20.0359786 C63.8760275,24.3420632 65.7971842,28.207321 68.8273065,30.8199915 L65.6867591,35.3637912 C61.2271192,31.7414582 58.3726992,26.2157874 58.3726992,20.0359786 C58.3726992,9.15202443 67.2281496,0.296574046 78.112974,0.296574046 Z" id="Path"></path>
                <path d="M99.3744962,72.5840611 C98.4172443,72.5840611 97.4878397,72.0845496 96.9813664,71.1925649 L74.6808779,32.0331298 L62.8762214,49.1018015 C62.012084,50.3523206 60.2968626,50.6647328 59.048084,49.7997252 C57.7984351,48.9355878 57.4851527,47.2203664 58.3501603,45.9715878 L72.6436718,25.3045191 C73.1814733,24.5247939 74.0804198,24.0827176 75.0263588,24.1201374 C75.9714275,24.1610382 76.8294733,24.684916 77.2976565,25.5072824 L101.763275,68.4704885 C102.515153,69.790626 102.053931,71.4710382 100.733794,72.222916 C100.303901,72.4674504 99.8357176,72.5840611 99.3744962,72.5840611" id="Fill-86"></path>
                <path d="M13.7563191,72.5840611 C13.3011893,72.5840611 12.8390977,72.4700611 12.4135557,72.2324885 C11.0881969,71.4884427 10.6156626,69.8115115 11.3588382,68.4870229 L39.8718916,17.6047328 C40.6150672,16.2785038 42.2919985,15.8085802 43.6173573,16.5482748 C44.942716,17.2923206 45.4152504,18.9692519 44.6720748,20.2946107 L16.1590214,71.1769008 C15.6551588,72.0767176 14.7196626,72.5840611 13.7563191,72.5840611" id="Fill-90"></path>
                <path d="M110.378977,72.5831908 L2.75166412,72.5831908 C1.23224427,72.5831908 -1.42108547e-14,71.3509466 -1.42108547e-14,69.8315267 C-1.42108547e-14,68.3121069 1.23224427,67.0807328 2.75166412,67.0807328 L110.378977,67.0807328 C111.899267,67.0807328 113.130641,68.3121069 113.130641,69.8315267 C113.130641,71.3509466 111.899267,72.5831908 110.378977,72.5831908" id="Fill-92"></path>
                <path d="M94.6868336,87.3533267 L18.4434595,87.3533267 C16.9240397,87.3533267 15.6917954,86.1210824 15.6917954,84.6016626 C15.6917954,83.0822427 16.9240397,81.8499985 18.4434595,81.8499985 L94.6868336,81.8499985 C96.2071237,81.8499985 97.4384977,83.0822427 97.4384977,84.6016626 C97.4384977,86.1210824 96.2071237,87.3533267 94.6868336,87.3533267" id="Fill-94"></path>
                <path d="M78.9946031,102.122592 L34.1360382,102.122592 C32.6157481,102.122592 31.384374,100.890348 31.384374,99.3709282 C31.384374,97.8515084 32.6157481,96.6192641 34.1360382,96.6192641 L78.9946031,96.6192641 C80.5148931,96.6192641 81.7462672,97.8515084 81.7462672,99.3709282 C81.7462672,100.890348 80.5148931,102.122592 78.9946031,102.122592" id="Fill-96"></path>
                <path d="M66.9032061,60.0880947 C65.9964275,60.0880947 65.1096641,59.6407969 64.5840458,58.8219115 L39.9565649,20.4352397 C39.1350687,19.1560031 39.5075267,17.4547053 40.7858931,16.6323389 C42.066,15.8125832 43.7681679,16.184171 44.5879237,17.4642779 L69.2162748,55.8500794 C70.0369008,57.129316 69.665313,58.831484 68.3860763,59.6521099 C67.9265954,59.9471176 67.4114198,60.0880947 66.9032061,60.0880947" id="Fill-100"></path>
                <path d="M63.437171,116.892641 L49.8276595,116.892641 C48.3082397,116.892641 47.0759954,115.660397 47.0759954,114.140977 C47.0759954,112.621557 48.3082397,111.389313 49.8276595,111.389313 L63.437171,111.389313 C64.9574611,111.389313 66.1888351,112.621557 66.1888351,114.140977 C66.1888351,115.660397 64.9574611,116.892641 63.437171,116.892641" id="Fill-98"></path>
            </g>
        </g>
    </g>
</svg>
