<?xml version="1.0" encoding="UTF-8"?>
<svg width="306px" height="306px" viewBox="0 0 306 306" version="1.1" xmlns="http://www.w3.org/2000/svg" xmlns:xlink="http://www.w3.org/1999/xlink">
    <!-- Generator: Sketch 58 (84663) - https://sketch.com -->
    <title>Favicon</title>
    <desc>Created with Sketch.</desc>
    <g id="Favicon" stroke="none" stroke-width="1" fill="none" fill-rule="evenodd">
        <g id="Mark" transform="translate(1.000000, 14.000000)" fill="#05C77E" fill-rule="nonzero">
            <path d="M8.10000032,185.206801 L296.685223,185.206801 C300.951088,185.206801 304.409254,181.748634 304.409254,177.48277 C304.409254,173.216906 300.951088,169.75874 296.685223,169.75874 L8.10000032,169.75874 C3.83413613,169.75874 0.37596994,173.216906 0.37596994,177.48277 C0.37596994,181.748634 3.83413613,185.206801 8.10000032,185.206801 Z" id="Path"></path>
            <path d="M67.3664854,223.814787 L237.414876,223.814787 C241.674022,223.814787 245.126741,220.362067 245.126741,216.102922 C245.126741,211.843777 241.674022,208.391057 237.414876,208.391057 L67.3664854,208.391057 C63.10734,208.391057 59.6546204,211.843777 59.6546204,216.102922 C59.6546204,220.362067 63.10734,223.814787 67.3664854,223.814787 Z" id="Path"></path>
            <path d="M126.640695,262.447104 L178.140667,262.447104 C182.406531,262.447104 185.864698,258.988938 185.864698,254.723074 C185.864698,250.45721 182.406531,246.999044 178.140667,246.999044 L126.640695,246.999044 C122.37483,246.999044 118.916664,250.45721 118.916664,254.723074 C118.916664,258.988938 122.37483,262.447104 126.640695,262.447104 Z" id="Path"></path>
            <path d="M257.706948,181.258704 C259.792339,184.980094 264.499665,186.306333 268.221054,184.220943 C271.942444,182.135552 273.268684,177.428226 271.183293,173.706836 L206.629709,58.5106472 C203.805724,53.4712315 196.651528,53.2017811 193.456479,58.0145003 L156.400443,113.832206 C154.041038,117.38619 155.009436,122.17994 158.56342,124.539345 C162.117405,126.89875 166.911154,125.930352 169.270559,122.376367 L199.333925,77.091757 L257.706948,181.258704 Z" id="Path"></path>
            <path d="M211.477582,-7.10542736e-15 C239.218497,-7.10542736e-15 261.706952,22.4884548 261.706952,50.2293696 C261.706952,72.0025763 247.853345,90.5400997 228.479896,97.5081762 L221.260518,84.6210115 C236.247167,80.3662054 247.224395,66.5797218 247.224395,50.2293696 C247.224395,30.4869501 231.220002,14.482557 211.477582,14.482557 C191.735163,14.482557 175.73077,30.4869501 175.73077,50.2293696 C175.73077,58.7526386 178.713753,66.5791947 183.692684,72.7220006 L175.414337,85.1927172 C166.645839,76.1501207 161.248213,63.8200868 161.248213,50.2293696 C161.248213,22.4884548 183.736667,-7.10542736e-15 211.477582,-7.10542736e-15 Z" id="Combined-Shape"></path>
            <path d="M115.136435,60.2326379 L194.415774,181.70435 C196.747289,185.276694 201.533311,186.282585 205.105655,183.95107 C208.677998,181.619556 209.683889,176.833534 207.352375,173.26119 L121.113576,41.1262023 C117.944567,36.2706505 110.754772,36.5078939 107.912748,41.5617931 L33.6075753,173.696781 C31.5166312,177.415053 32.8358415,182.124354 36.5541139,184.215298 C40.2723864,186.306242 44.9816869,184.987032 47.072631,181.268759 L115.136435,60.2326379 Z" id="Path"></path>
        </g>
    </g>
</svg>