<svg viewBox="0 0 85 72" fill="none" xmlns="http://www.w3.org/2000/svg">
<path fill-rule="evenodd" clip-rule="evenodd" d="M50.4318 34.5882V0H85V31.0588C85 37.9608 84.0135 43.8824 82.0404 48.8235C80.0673 53.7647 77.4629 57.8824 74.227 61.1765C70.9912 64.4706 67.2423 66.9804 62.9805 68.7059C58.7187 70.4314 54.299 71.5294 49.7214 72V57.8824C54.299 56.6275 58.2057 54.0784 61.4415 50.2353C64.6773 46.3922 66.2953 41.3333 66.2953 35.0588V34.5882H50.4318ZM0.473541 34.5882V0H35.0418V31.0588C35.0418 37.9608 34.0552 43.8824 32.0822 48.8235C30.1091 53.7647 27.5046 57.8824 24.2688 61.1765C21.033 64.4706 17.3236 66.9804 13.1407 68.7059C8.95776 70.4314 4.57753 71.5294 0 72V57.8824C4.57753 56.6275 8.44476 54.0784 11.6017 50.2353C14.7586 46.3922 16.3371 41.3333 16.3371 35.0588V34.5882H0.473541Z" />
</svg>
