<svg viewBox="0 0 85 72" fill="none" xmlns="http://www.w3.org/2000/svg">
<path opacity="0.20" fill-rule="evenodd" clip-rule="evenodd" d="M34.5682 37.4118V72H0V40.9412C0 34.0392 0.986537 28.1176 2.95961 23.1765C4.93268 18.2353 7.53714 14.1176 10.773 10.8235C14.0088 7.52941 17.7577 5.01961 22.0195 3.29412C26.2813 1.56863 30.701 0.470588 35.2786 0V14.1176C30.701 15.3725 26.7943 17.9216 23.5585 21.7647C20.3227 25.6078 18.7047 30.6667 18.7047 36.9412V37.4118H34.5682ZM84.5265 37.4118V72H49.9582V40.9412C49.9582 34.0392 50.9448 28.1176 52.9178 23.1765C54.8909 18.2353 57.4954 14.1176 60.7312 10.8235C63.967 7.52941 67.6764 5.01961 71.8593 3.29412C76.0422 1.56863 80.4225 0.470588 85 0V14.1176C80.4225 15.3725 76.5552 17.9216 73.3983 21.7647C70.2414 25.6078 68.6629 30.6667 68.6629 36.9412V37.4118H84.5265Z" fill="white"/>
</svg>
