<?xml version="1.0" encoding="UTF-8"?>
<svg width="738px" height="716px" viewBox="0 0 738 716" version="1.1" xmlns="http://www.w3.org/2000/svg" xmlns:xlink="http://www.w3.org/1999/xlink">
    <!-- Generator: Sketch 55.2 (78181) - https://sketchapp.com -->
    <title>replay</title>
    <desc>Created with Sketch.</desc>
    <g id="replay" stroke="none" stroke-width="1" fill="none" fill-rule="evenodd">
        <g id="history-solid" transform="translate(369.500000, 378.500000) scale(-1, 1) rotate(-315.000000) translate(-369.500000, -378.500000) translate(122.000000, 131.000000)" fill="#000000" fill-rule="nonzero">
            <path fill='currentColor' d="M494.999572,247.03238 C495.251633,383.397136 384.043489,494.904065 247.679208,494.999936 C188.783292,495.041787 134.684676,474.511227 92.1716348,440.199483 C81.1169866,431.277492 80.2906574,414.709933 90.3363457,404.664209 L101.58061,393.419905 C110.172239,384.828247 123.888505,383.888145 133.407259,391.439902 C164.728929,416.294734 204.367781,431.12979 247.499572,431.12979 C348.999346,431.12979 431.128286,348.984595 431.128286,247.500435 C431.128286,146.000307 348.983378,63.87108 247.499572,63.87108 C198.784071,63.87108 154.538533,82.8018693 121.685959,113.702498 L172.337544,164.354261 C182.397204,174.413956 175.27261,191.61324 161.047372,191.61324 L15.9677143,191.61324 C7.1485461,191.61324 0,184.464669 0,175.64547 L0,30.5653057 C0,16.3400186 17.1992243,9.21539926 27.2588843,19.2740964 L76.5312587,68.5466427 C120.964418,26.0833523 181.185654,0 247.499572,0 C384.033509,0 494.746654,110.556848 494.999572,247.03238 Z" id="Shape"></path>
        </g>
    </g>
</svg>
