<?xml version="1.0" encoding="UTF-8"?>
<svg width="2717px" height="738px" viewBox="0 0 2717 738" version="1.1" xmlns="http://www.w3.org/2000/svg" xmlns:xlink="http://www.w3.org/1999/xlink">
    <!-- Generator: Sketch 55.2 (78181) - https://sketchapp.com -->
    <title>background-lines-lg</title>
    <desc>Created with Sketch.</desc>
    <defs>
        <rect id="path-1" x="0" y="0" width="2122" height="583"></rect>
        <filter x="-0.1%" y="-0.5%" width="100.2%" height="101.0%" filterUnits="objectBoundingBox" id="filter-3">
            <feGaussianBlur stdDeviation="1" in="SourceGraphic"></feGaussianBlur>
        </filter>
        <filter x="-0.1%" y="-0.5%" width="100.2%" height="101.0%" filterUnits="objectBoundingBox" id="filter-4">
            <feGaussianBlur stdDeviation="1" in="SourceGraphic"></feGaussianBlur>
        </filter>
        <filter x="-0.2%" y="-1.0%" width="100.3%" height="102.0%" filterUnits="objectBoundingBox" id="filter-5">
            <feGaussianBlur stdDeviation="2" in="SourceGraphic"></feGaussianBlur>
        </filter>
        <filter x="-0.1%" y="-0.5%" width="100.2%" height="101.0%" filterUnits="objectBoundingBox" id="filter-6">
            <feGaussianBlur stdDeviation="1" in="SourceGraphic"></feGaussianBlur>
        </filter>
        <filter x="-0.2%" y="-1.0%" width="100.3%" height="102.0%" filterUnits="objectBoundingBox" id="filter-7">
            <feGaussianBlur stdDeviation="2" in="SourceGraphic"></feGaussianBlur>
        </filter>
        <linearGradient x1="94.8646044%" y1="49.0184702%" x2="68.7693606%" y2="49.6257198%" id="linearGradient-8">
            <stop stop-color="#05C77E" offset="0%"></stop>
            <stop stop-color="#05C77E" stop-opacity="0" offset="100%"></stop>
        </linearGradient>
        <linearGradient x1="94.8646044%" y1="49.0184702%" x2="68.7693606%" y2="49.6257198%" id="linearGradient-9">
            <stop stop-color="#464646" offset="0%"></stop>
            <stop stop-color="#000000" stop-opacity="0" offset="100%"></stop>
        </linearGradient>
        <filter x="-0.2%" y="-1.4%" width="100.5%" height="102.9%" filterUnits="objectBoundingBox" id="filter-10">
            <feGaussianBlur stdDeviation="1" in="SourceGraphic"></feGaussianBlur>
        </filter>
        <filter x="-0.2%" y="-1.5%" width="100.5%" height="102.9%" filterUnits="objectBoundingBox" id="filter-11">
            <feGaussianBlur stdDeviation="1" in="SourceGraphic"></feGaussianBlur>
        </filter>
        <linearGradient x1="97.5849609%" y1="44.341455%" x2="14.7773438%" y2="53.493605%" id="linearGradient-12">
            <stop stop-color="#1A1C1D" stop-opacity="0" offset="0%"></stop>
            <stop stop-color="#1A1C1D" offset="100%"></stop>
        </linearGradient>
        <linearGradient x1="97.5849609%" y1="35.2398884%" x2="14.7773438%" y2="59.1129433%" id="linearGradient-13">
            <stop stop-color="#1A1C1D" stop-opacity="0" offset="0%"></stop>
            <stop stop-color="#1A1C1D" offset="100%"></stop>
        </linearGradient>
    </defs>
    <g id="background-lines-lg" stroke="none" stroke-width="1" fill="none" fill-rule="evenodd">
        <g id="Background-Lines" transform="translate(720.000000, -110.000000)">
            <mask id="mask-2" fill="white">
                <use xlink:href="#path-1"></use>
            </mask>
            <g id="Mask"></g>
            <g mask="url(#mask-2)">
                <g transform="translate(-595.000000, -172.000000)">
                    <polygon id="Path-7" fill="#212425" fill-rule="nonzero" filter="url(#filter-3)" points="580.097818 708.626974 580.097818 639.732685 4090.63903 102.847137 4090.63903 172.058559"></polygon>
                    <polygon id="Path-7" fill="#1E2021" fill-rule="nonzero" filter="url(#filter-4)" points="580.097818 690.036452 580.097818 621.142163 4090.63903 84.2566147 4090.63903 153.468036"></polygon>
                    <polygon id="Path-7" fill="#2A2E2F" fill-rule="nonzero" filter="url(#filter-5)" points="580.097818 638.639125 580.097818 569.744836 4090.63903 32.8592878 4090.63903 102.070709"></polygon>
                    <polygon id="Path-7" fill="#232627" fill-rule="nonzero" filter="url(#filter-6)" points="580.097818 605.832321 580.097818 536.938032 4090.63903 0.0524834508 4090.63903 69.2639051"></polygon>
                    <polygon id="Path-7" fill="#2A2D2F" fill-rule="nonzero" filter="url(#filter-7)" points="579.740642 777.521264 579.740642 708.626974 4090.289 171.741426 4090.289 240.952848"></polygon>
                    <polygon id="Path" fill="url(#linearGradient-8)" fill-rule="nonzero" points="579.740642 688.942892 579.740642 687.849332 1902.58511 485.540705 1902.58511 486.634265"></polygon>
                    <path d="M306.278075,648.481166 L306.278075,647.387606 L1628.58205,445.16164 C1628.83838,445.122439 1629.07795,445.298453 1629.11715,445.554779 C1629.12074,445.578269 1629.12255,445.601997 1629.12255,445.625759 C1629.12255,445.94026 1628.89294,446.207655 1628.58205,446.2552 L306.278075,648.481166 Z" id="Path" fill="url(#linearGradient-8)" fill-rule="nonzero"></path>
                    <path d="M448.47861,681.287971 L448.47861,680.194411 L1770.78258,477.968444 C1771.03891,477.929243 1771.27848,478.105258 1771.31768,478.361584 C1771.32128,478.385073 1771.32308,478.408801 1771.32308,478.432564 C1771.32308,478.747065 1771.09347,479.014459 1770.78258,479.062004 L448.47861,681.287971 Z" id="Path" fill="url(#linearGradient-9)" fill-rule="nonzero" filter="url(#filter-10)"></path>
                    <path d="M76.5695187,604.738761 L76.5695187,603.6452 L1398.87349,401.419234 C1399.12982,401.380033 1399.36939,401.556047 1399.40859,401.812374 C1399.41219,401.835863 1399.41399,401.859591 1399.41399,401.883354 C1399.41399,402.197854 1399.18438,402.465249 1398.87349,402.512794 L76.5695187,604.738761 Z" id="Path" fill="url(#linearGradient-9)" fill-rule="nonzero"></path>
                    <path d="M0,900 L0,898.90644 L1322.30397,696.680473 C1322.5603,696.641272 1322.79987,696.817287 1322.83907,697.073613 C1322.84267,697.097102 1322.84447,697.120831 1322.84447,697.144593 C1322.84447,697.459094 1322.61486,697.726488 1322.30397,697.774034 L0,900 Z" id="Path" fill="url(#linearGradient-9)" fill-rule="nonzero"></path>
                    <polygon id="Path" fill="url(#linearGradient-8)" fill-rule="nonzero" filter="url(#filter-11)" points="377.378342 814.702309 377.378342 813.608748 1700.22281 611.300122 1700.22281 612.393682"></polygon>
                    <rect id="Rectangle" fill="url(#linearGradient-12)" fill-rule="evenodd" x="590.679144" y="238.396112" width="1312.62032" height="557.715674"></rect>
                    <rect id="Rectangle-Copy" fill="url(#linearGradient-13)" fill-rule="evenodd" transform="translate(2185.365374, 347.752126) rotate(-180.000000) translate(-2185.365374, -347.752126) " x="1779" y="68.8942892" width="812.730749" height="557.715674"></rect>
                </g>
            </g>
        </g>
    </g>
</svg>